# Blender v2.78 (sub 0) OBJ File: ''
# www.blender.org
v -8.023800 -0.000003 15.652300
v -8.023800 0.000002 -11.906700
v -2.118300 0.000002 -11.906700
v -2.118300 -0.000003 15.652300
v -2.473600 47.244095 15.652308
v -2.473600 49.564201 1.872808
v -7.668500 49.564201 1.872808
v -7.668500 47.244095 15.652308
v 3.015400 -0.000003 20.785900
v 3.015400 4.028197 20.785900
v -12.802100 4.028197 20.785900
v -12.802100 -0.000003 20.785900
v 3.015400 0.000003 -16.685101
v 3.015400 4.028203 -16.685101
v -12.802100 0.000003 -17.040400
v -12.802100 4.028203 -17.040400
v 2.660000 4.028203 -17.040400
v 2.660000 0.000003 -17.040400
v -13.157400 -0.000003 20.430599
v -13.157400 4.028197 20.430599
v -13.157400 4.028203 -16.685101
v -13.157400 0.000003 -16.685101
v -7.668500 4.383598 15.652301
v -2.473600 4.383598 15.652301
v -2.118300 49.203899 1.872808
v -2.118300 46.943596 15.297008
v -2.118300 4.383598 15.297001
v -2.118300 4.383602 -11.551399
v -2.118300 46.943600 -11.551393
v -7.668500 47.244102 -11.906693
v -2.473600 47.244102 -11.906693
v -2.473600 4.383602 -11.906699
v -7.668500 4.383602 -11.906699
v -6.580700 47.069401 1.872808
v -6.580700 45.163502 -9.446592
v -6.580700 6.843701 -9.446599
v -6.580700 6.843698 13.192101
v -6.580700 45.163498 13.192107
v -12.906200 0.000003 -16.789101
v -12.906200 -0.000003 20.534700
v 2.764100 0.000003 -16.789101
v -8.275000 4.383598 15.903501
v -12.906200 4.383597 20.534700
v 2.764100 4.383597 20.534700
v -1.867000 4.383598 15.903501
v -8.023800 4.383598 15.297001
v -8.023800 4.383602 -11.551399
v -8.275000 4.383602 -12.157999
v -12.906200 4.383603 -16.789101
v -1.867000 4.383602 -12.157999
v 2.764100 4.383603 -16.789101
v -8.023800 49.208900 1.872808
v -8.023800 47.014702 -11.635392
v -8.023800 45.163502 -9.446592
v -8.023800 47.069401 1.872808
v -8.023800 4.634802 -11.655499
v -8.023800 6.843701 -9.446599
v -8.023800 4.634798 15.401101
v -8.023800 6.843698 13.192101
v -8.023800 47.014698 15.381007
v -8.023800 45.163498 13.192107
vt 0.0669 0.8014
vt 0.3722 0.7360
vt 0.3722 0.8014
vt 0.2233 0.5466
vt 0.0706 0.6042
vt 0.0706 0.5466
vt 0.2498 0.5342
vt 0.0745 0.4896
vt 0.2498 0.4896
vt 0.0112 0.8962
vt 0.4263 0.9409
vt 0.0112 0.9409
vt 0.2458 0.4771
vt 0.0745 0.4325
vt 0.2458 0.4325
vt 0.5418 0.5569
vt 0.9529 0.6015
vt 0.5418 0.6015
vt 0.9379 0.7406
vt 0.4631 0.6831
vt 0.9379 0.6831
vt 0.0100 0.3114
vt 0.0100 0.0139
vt 0.5065 0.1627
vt 0.9379 0.8400
vt 0.4631 0.7825
vt 0.9379 0.7825
vt 0.5405 0.2608
vt 0.5405 0.0100
vt 0.9862 0.1354
vt 0.0139 0.8583
vt 0.4251 0.8583
vt 0.4291 0.8544
vt 0.0139 0.6791
vt 0.4291 0.6791
vt 0.0100 0.6831
vt 0.0669 0.7360
vt 0.0100 0.8544
vt 0.5919 0.4677
vt 0.5406 0.3454
vt 0.5919 0.3967
vt 0.8961 0.4649
vt 0.9541 0.5190
vt 0.5986 0.4649
vt 0.9028 0.3967
vt 0.9541 0.3454
vt 0.9028 0.4677
vt 0.5986 0.3995
vt 0.8961 0.3995
vt 0.3759 0.6042
vt 0.3759 0.5466
vt 0.5066 0.4953
vt 0.4618 0.6207
vt 0.4829 0.4953
vt 0.4823 0.6449
vt 0.0373 0.6207
vt 0.0100 0.3465
vt 0.0373 0.3699
vt 0.0100 0.6440
vt 0.4823 0.3456
vt 0.0128 0.3454
vt 0.4618 0.3699
vt 0.4631 0.9400
vt 0.5885 0.9240
vt 0.5885 0.9400
vt 0.4631 0.8900
vt 0.8876 0.8740
vt 0.8876 0.8900
vt 0.5406 0.6430
vt 0.7914 0.6271
vt 0.7914 0.6430
vt 0.9651 0.2948
vt 0.5405 0.3108
vt 0.5405 0.2948
vt 0.7139 0.9240
vt 0.7139 0.9400
vt 0.5947 0.4034
vt 0.5947 0.4610
vt 0.5975 0.4649
vt 0.9000 0.4034
vt 0.9000 0.4610
vt 0.8972 0.4649
vt 0.0140 0.9664
vt 0.1637 0.9900
vt 0.0100 0.9715
vt 0.2233 0.6042
vt 0.3729 0.6081
vt 0.2233 0.6081
vt 0.4658 0.7446
vt 0.9353 0.7446
vt 0.9346 0.6791
vt 0.0100 0.0100
vt 0.4815 0.0139
vt 0.4658 0.7786
vt 0.9353 0.7786
vt 0.3094 0.9668
vt 0.3132 0.9719
vt 0.0736 0.6081
vt 0.0128 0.8555
vt 0.4263 0.8555
vt 0.0128 0.6819
vt 0.6095 0.4475
vt 0.6067 0.4516
vt 0.6039 0.4475
vt 0.6981 0.4493
vt 0.6953 0.4534
vt 0.6925 0.4493
vt 0.8205 0.4475
vt 0.8177 0.4516
vt 0.8149 0.4475
vt 0.0706 0.4771
vt 0.0706 0.4325
vt 0.2498 0.4325
vt 0.0706 0.5342
vt 0.0745 0.5342
vt 0.2470 0.5381
vt 0.9541 0.5530
vt 0.9529 0.5569
vt 0.2470 0.4811
vt 0.0745 0.4771
vt 0.4235 0.8923
vt 0.4263 0.8962
vt 0.4631 0.7406
vt 0.4815 0.3114
vt 0.4631 0.8400
vt 0.9651 0.0100
vt 0.9651 0.2608
vt 0.5406 0.5190
vt 0.0128 0.6451
vt 0.4631 0.9240
vt 0.4631 0.8740
vt 0.5406 0.6271
vt 0.9651 0.3108
vt 0.1637 0.9844
vt 0.4631 0.6791
vt 0.4848 0.0100
vt 0.2498 0.4771
vt 0.0706 0.4896
vt 0.0734 0.5381
vt 0.5406 0.5530
vt 0.0734 0.4811
vt 0.0100 0.8923
vn 0.0000 -1.0000 -0.0000
vn 0.0000 1.0000 0.0000
vn 0.0000 0.9861 0.1660
vn 0.0000 0.0000 1.0000
vn 1.0000 0.0000 0.0000
vn 0.0000 0.0000 -1.0000
vn -1.0000 0.0000 0.0000
vn 0.0000 0.9861 -0.1660
vn 0.0000 -0.9861 0.1660
vn 0.0000 -0.9861 -0.1660
vn -0.5919 0.5472 0.5919
vn -0.3230 0.8895 0.3230
vn -0.6786 -0.2812 0.6786
vn -0.3230 0.8896 -0.3230
vn -0.5919 0.5471 -0.5919
vn -0.6786 -0.2812 -0.6786
vn 0.7071 0.6973 0.1174
vn -0.7005 0.7044 -0.1145
vn -0.6086 0.7825 -0.1317
vn -0.7025 0.7025 -0.1141
vn -0.5774 0.0000 0.8164
vn -0.6068 0.0004 0.7949
vn -0.6070 0.0004 0.7947
vn 0.7071 -0.0000 0.7071
vn 0.7071 0.0000 -0.7071
vn -0.6068 0.0004 -0.7949
vn -0.5775 0.0000 -0.8164
vn -0.6070 0.0004 -0.7947
vn 0.7071 0.6973 -0.1174
vn -0.6086 0.7825 0.1317
vn -0.7005 0.7044 0.1145
vn -0.7025 0.7025 0.1141
vn -0.6786 0.2812 0.6786
vn -0.6786 0.2811 -0.6786
vn 0.6785 0.2812 -0.6787
vn 0.7070 0.0000 -0.7072
vn -0.7071 0.0000 -0.7071
vn -0.7071 0.0000 0.7071
vn 0.0000 0.5772 0.8166
vn -0.8166 0.5772 0.0000
vn 0.0000 0.5773 -0.8165
vn 0.8165 0.5773 0.0000
vn -0.6068 0.7838 -0.1320
vn -0.5773 -0.0000 0.8165
vn -0.5773 0.0000 -0.8165
vn -0.6068 0.7838 0.1320
f 2/1/1 4/2/1 1/3/1
f 6/4/2 8/5/3 5/6/3
f 10/7/4 12/8/4 9/9/4
f 14/10/5 9/11/5 13/12/5
f 16/13/6 18/14/6 15/15/6
f 20/16/7 22/17/7 19/18/7
f 8/19/4 24/20/4 5/21/4
f 27/22/5 28/23/5 25/24/5
f 31/25/6 33/26/6 30/27/6
f 36/28/7 37/29/7 34/30/7
f 22/31/1 2/1/1 19/32/1
f 12/33/1 1/3/1 4/2/1
f 13/34/1 9/35/1 4/2/1
f 18/36/1 3/37/1 15/38/1
f 42/39/2 44/40/2 45/41/2
f 47/42/2 49/43/2 46/44/2
f 50/45/2 51/46/2 48/47/2
f 27/48/2 44/40/2 28/49/2
f 30/50/8 6/4/2 31/51/8
f 52/52/7 54/53/7 55/54/7
f 53/55/7 57/56/7 54/53/7
f 46/57/7 59/58/7 47/59/7
f 60/60/7 59/58/7 58/61/7
f 52/52/7 61/62/7 60/60/7
f 54/63/9 34/64/9 55/65/9
f 57/66/4 35/67/4 54/68/4
f 59/69/2 36/70/2 57/71/2
f 61/72/6 37/73/6 59/74/6
f 55/65/10 38/75/10 61/76/10
f 24/77/2 45/41/2 27/48/2
f 46/44/11 23/78/12 58/79/13
f 28/49/2 50/45/2 32/80/2
f 33/81/14 47/42/15 56/82/16
f 26/83/17 6/84/17 5/85/17
f 7/86/18 53/87/19 52/88/20
f 58/89/21 8/19/22 60/90/23
f 24/20/24 26/91/24 5/21/24
f 32/92/25 29/93/25 28/23/25
f 30/27/26 56/94/27 53/95/28
f 6/84/29 29/96/29 31/97/29
f 60/98/30 7/86/31 52/88/32
f 39/99/1 22/31/1 15/38/1
f 40/100/1 12/33/1 19/32/1
f 41/101/1 18/36/1 13/34/1
f 11/102/33 43/103/33 20/104/33
f 21/105/34 49/106/34 16/107/34
f 17/108/35 51/109/35 14/110/35
f 18/14/36 14/111/36 13/112/36
f 22/113/37 16/13/37 15/15/37
f 20/114/38 12/8/38 11/115/38
f 44/116/39 11/115/39 10/7/39
f 20/16/40 49/117/40 21/118/40
f 49/119/41 17/120/41 16/13/41
f 14/10/42 44/121/42 10/122/42
f 2/1/1 3/37/1 4/2/1
f 6/4/2 7/86/2 8/5/3
f 10/7/4 11/115/4 12/8/4
f 14/10/5 10/122/5 9/11/5
f 16/13/6 17/120/6 18/14/6
f 20/16/7 21/118/7 22/17/7
f 8/19/4 23/123/4 24/20/4
f 29/93/5 25/24/5 28/23/5
f 26/124/5 27/22/5 25/24/5
f 31/25/6 32/125/6 33/26/6
f 38/126/7 34/30/7 37/29/7
f 35/127/7 36/28/7 34/30/7
f 40/100/1 19/32/1 1/3/1
f 22/31/1 39/99/1 2/1/1
f 2/1/1 1/3/1 19/32/1
f 4/2/1 9/35/1 12/33/1
f 12/33/1 40/100/1 1/3/1
f 4/2/1 3/37/1 13/34/1
f 41/101/1 13/34/1 3/37/1
f 39/99/1 15/38/1 2/1/1
f 18/36/1 41/101/1 3/37/1
f 3/37/1 2/1/1 15/38/1
f 45/41/2 24/77/2 42/39/2
f 23/78/2 42/39/2 24/77/2
f 43/128/2 44/40/2 42/39/2
f 42/39/2 46/44/2 43/128/2
f 47/42/2 48/47/2 49/43/2
f 49/43/2 43/128/2 46/44/2
f 48/47/2 33/81/2 32/80/2
f 32/80/2 50/45/2 48/47/2
f 51/46/2 49/43/2 48/47/2
f 50/45/2 28/49/2 51/46/2
f 27/48/2 45/41/2 44/40/2
f 44/40/2 51/46/2 28/49/2
f 30/50/8 7/86/2 6/4/2
f 52/52/7 53/55/7 54/53/7
f 53/55/7 56/129/7 57/56/7
f 56/129/7 47/59/7 57/56/7
f 46/57/7 58/61/7 59/58/7
f 59/58/7 57/56/7 47/59/7
f 60/60/7 61/62/7 59/58/7
f 52/52/7 55/54/7 61/62/7
f 54/63/9 35/130/9 34/64/9
f 57/66/4 36/131/4 35/67/4
f 59/69/2 37/132/2 36/70/2
f 61/72/6 38/133/6 37/73/6
f 55/65/10 34/64/10 38/75/10
f 46/44/11 42/39/2 23/78/12
f 33/81/14 48/47/2 47/42/15
f 26/83/17 25/134/17 6/84/17
f 7/86/18 30/50/43 53/87/19
f 58/89/21 23/123/44 8/19/22
f 24/20/24 27/135/24 26/91/24
f 32/92/25 31/136/25 29/93/25
f 30/27/26 33/26/45 56/94/27
f 6/84/29 25/134/29 29/96/29
f 60/98/30 8/5/46 7/86/31
f 18/14/36 17/120/36 14/111/36
f 22/113/37 21/137/37 16/13/37
f 20/114/38 19/138/38 12/8/38
f 44/116/39 43/139/39 11/115/39
f 20/16/40 43/140/40 49/117/40
f 49/119/41 51/141/41 17/120/41
f 14/10/42 51/142/42 44/121/42
